<svg width="555" height="79" viewBox="0 0 555 79" fill="none" xmlns="http://www.w3.org/2000/svg">
<path d="M12.336 78.352C10.096 78.352 7.95199 78.032 5.90399 77.392C3.91999 76.816 2.19198 75.536 0.719985 73.552C0.911985 72.016 1.35999 69.776 2.06399 66.832C2.83198 63.888 3.75998 60.56 4.84799 56.848C5.93599 53.072 7.08799 49.2 8.30399 45.232C9.51999 41.264 10.704 37.488 11.856 33.904C13.072 30.256 14.128 27.088 15.024 24.4C15.984 21.648 16.688 19.664 17.136 18.448C17.328 17.936 17.648 17.168 18.096 16.144C18.544 15.12 19.12 14.064 19.824 12.976C20.528 11.888 21.328 10.992 22.224 10.288C23.184 9.52 24.208 9.136 25.296 9.136C26.384 9.136 27.6 9.584 28.944 10.48C26.96 14.96 24.944 19.952 22.896 25.456C20.912 30.896 18.992 36.528 17.136 42.352C15.344 48.112 13.68 53.744 12.144 59.248C10.672 64.688 9.45599 69.68 8.49599 74.224C9.00799 74.416 9.71199 74.544 10.608 74.608C11.568 74.736 12.464 74.8 13.296 74.8C17.456 74.8 21.424 73.776 25.2 71.728C28.976 69.744 32.432 67.088 35.568 63.76C38.768 60.368 41.552 56.592 43.92 52.432C46.288 48.208 48.112 43.888 49.392 39.472C50.672 35.056 51.312 30.832 51.312 26.8C51.312 21.616 50.416 17.424 48.624 14.224C46.896 10.96 44.496 8.592 41.424 7.12C38.352 5.584 34.832 4.816 30.864 4.816C26.704 4.816 22.96 5.584 19.632 7.12C16.304 8.592 13.68 10.64 11.76 13.264C9.90399 15.824 8.97599 18.768 8.97599 22.096C8.97599 22.8 9.03999 23.568 9.16799 24.4C9.29599 25.168 9.51999 25.936 9.83999 26.704C7.08799 26.704 5.10399 26.128 3.88799 24.976C2.73599 23.76 2.15998 22.288 2.15998 20.56C2.15998 18.32 2.95999 16.048 4.55999 13.744C6.22399 11.44 8.49599 9.328 11.376 7.408C14.32 5.424 17.712 3.856 21.552 2.704C25.392 1.488 29.552 0.879997 34.032 0.879997C40.304 0.879997 45.328 2.096 49.104 4.528C52.88 6.896 55.6 10.128 57.264 14.224C58.992 18.256 59.856 22.768 59.856 27.76C59.856 33.264 58.96 38.544 57.168 43.6C55.44 48.592 53.008 53.2 49.872 57.424C46.8 61.648 43.216 65.328 39.12 68.464C35.088 71.6 30.768 74.032 26.16 75.76C21.616 77.488 17.008 78.352 12.336 78.352ZM63.3622 73.648C61.9542 73.648 60.9302 72.56 60.2902 70.384C59.7142 68.208 59.4262 65.68 59.4262 62.8C59.4262 59.856 59.9062 56.304 60.8662 52.144C61.8902 47.984 63.2342 43.6 64.8982 38.992C66.6262 34.384 68.5142 29.872 70.5622 25.456C72.6742 21.04 74.8182 17.04 76.9942 13.456C79.2342 9.808 81.3462 6.896 83.3302 4.72C85.3782 2.544 87.1702 1.456 88.7062 1.456C90.0502 1.456 91.0742 2.192 91.7782 3.664C92.4822 5.136 92.8342 6.672 92.8342 8.272C92.8342 10 92.4182 12.144 91.5862 14.704C90.8182 17.2 89.7302 19.888 88.3222 22.768C86.9142 25.648 85.2502 28.496 83.3302 31.312C81.4742 34.064 79.4262 36.592 77.1862 38.896C75.0102 41.2 72.7382 43.056 70.3702 44.464C69.5382 46.64 68.8662 48.688 68.3542 50.608C67.9062 52.464 67.5862 54.224 67.3942 55.888C67.2022 57.552 67.1062 59.184 67.1062 60.784C67.1062 61.104 67.1062 61.456 67.1062 61.84C67.1702 62.16 67.2022 62.48 67.2022 62.8C67.4582 62.416 67.8742 61.424 68.4502 59.824C69.0262 58.224 69.7942 56.368 70.7542 54.256C71.7782 52.08 73.0262 49.968 74.4982 47.92C75.9702 45.808 77.6982 44.08 79.6822 42.736C81.6662 41.328 83.9382 40.624 86.4982 40.624C88.6742 40.624 90.3702 41.136 91.5862 42.16C92.8022 43.12 93.6662 44.336 94.1782 45.808C94.6902 47.216 94.9462 48.656 94.9462 50.128C94.9462 52.176 94.5942 54.096 93.8902 55.888C93.2502 57.68 92.5782 59.376 91.8742 60.976C91.2342 62.512 90.9142 63.984 90.9142 65.392C90.9142 66.544 91.1702 67.344 91.6822 67.792C92.1942 68.24 92.8022 68.464 93.5062 68.464C94.9142 68.464 96.5462 67.76 98.4022 66.352C100.322 64.944 102.21 63.088 104.066 60.784C105.986 58.416 107.618 55.824 108.962 53.008L110.498 54.64C109.026 57.84 107.298 60.784 105.314 63.472C103.33 66.16 101.154 68.304 98.7862 69.904C96.4182 71.504 93.8582 72.304 91.1062 72.304C88.6742 72.304 86.8182 71.664 85.5382 70.384C84.2582 69.104 83.6182 67.504 83.6182 65.584C83.6182 64.24 83.8422 62.768 84.2902 61.168C84.8022 59.504 85.2822 57.84 85.7302 56.176C86.1782 54.512 86.4022 53.008 86.4022 51.664C86.4022 50.128 86.0502 49.072 85.3462 48.496C84.7062 47.92 83.9062 47.632 82.9462 47.632C81.3462 47.632 79.9062 48.272 78.6262 49.552C77.3462 50.768 76.1942 52.368 75.1702 54.352C74.1462 56.336 73.1862 58.448 72.2902 60.688C71.3942 62.864 70.4982 64.944 69.6022 66.928C68.7062 68.912 67.7462 70.512 66.7222 71.728C65.7622 73.008 64.6422 73.648 63.3622 73.648ZM72.3862 38.32C74.0502 36.848 75.6502 35.088 77.1862 33.04C78.7222 30.992 80.1302 28.88 81.4102 26.704C82.7542 24.464 83.9062 22.32 84.8662 20.272C85.8902 18.16 86.6902 16.272 87.2662 14.608C87.8422 12.944 88.1622 11.664 88.2262 10.768C88.2262 10.704 88.2262 10.672 88.2262 10.672C88.2262 10.608 88.2262 10.544 88.2262 10.48C87.8422 10.48 87.0102 11.28 85.7302 12.88C84.5142 14.416 83.0742 16.528 81.4102 19.216C79.8102 21.84 78.1782 24.816 76.5142 28.144C74.9142 31.472 73.5382 34.864 72.3862 38.32ZM110.8 74.512C108.688 74.512 106.864 73.808 105.328 72.4C103.728 70.992 102.928 68.88 102.928 66.064C102.928 63.824 103.44 61.392 104.464 58.768C105.488 56.144 106.896 53.552 108.688 50.992C110.48 48.432 112.528 46.128 114.832 44.08C117.136 41.968 119.6 40.272 122.224 38.992C124.848 37.712 127.472 37.072 130.096 37.072C132.848 37.072 135.184 37.776 137.104 39.184C139.024 40.592 139.984 42.448 139.984 44.752C139.984 46.48 139.376 47.728 138.16 48.496C136.944 49.264 135.504 49.488 133.84 49.168C133.968 48.592 134.064 48.016 134.128 47.44C134.256 46.864 134.32 46.256 134.32 45.616C134.32 44.336 134.064 43.184 133.552 42.16C133.04 41.136 131.952 40.624 130.288 40.624C128.496 40.624 126.672 41.232 124.816 42.448C122.96 43.664 121.168 45.264 119.44 47.248C117.776 49.168 116.272 51.312 114.928 53.68C113.584 55.984 112.528 58.256 111.76 60.496C110.992 62.736 110.608 64.752 110.608 66.544C110.608 68.592 111.344 69.616 112.816 69.616C114.288 69.616 115.92 68.912 117.712 67.504C119.504 66.032 121.296 64.208 123.088 62.032C124.944 59.856 126.704 57.648 128.368 55.408C130.032 53.104 131.472 51.152 132.688 49.552C132.88 49.232 133.136 49.072 133.456 49.072C133.712 49.136 134.192 49.296 134.896 49.552C135.664 49.744 136.368 50.064 137.008 50.512C137.648 50.96 137.968 51.536 137.968 52.24C137.968 52.88 137.68 53.712 137.104 54.736C136.592 55.696 135.952 56.784 135.184 58C134.48 59.152 133.84 60.336 133.264 61.552C132.752 62.704 132.496 63.824 132.496 64.912C132.496 65.744 132.72 66.544 133.168 67.312C133.616 68.016 134.352 68.368 135.376 68.368C136.912 68.368 139.056 67.248 141.808 65.008C144.624 62.704 147.472 58.832 150.352 53.392L152.176 55.216C150.64 58.672 148.784 61.744 146.608 64.432C144.496 67.056 142.256 69.104 139.888 70.576C137.52 72.112 135.12 72.88 132.688 72.88C130.064 72.88 128.112 72.048 126.832 70.384C125.552 68.72 124.848 66.928 124.72 65.008C124.72 64.88 124.72 64.784 124.72 64.72C124.72 64.656 124.72 64.592 124.72 64.528C122.16 67.6 119.792 70.032 117.616 71.824C115.504 73.616 113.232 74.512 110.8 74.512ZM154.224 73.744C151.856 73.744 150.192 72.656 149.232 70.48C148.336 68.368 147.888 65.616 147.888 62.224C147.888 61.52 147.92 60.272 147.984 58.48C148.048 56.624 148.144 54.064 148.272 50.8C148.336 48.88 148.528 47.568 148.848 46.864C149.232 46.16 150.256 45.808 151.92 45.808C153.456 45.808 154.352 46.128 154.608 46.768C154.928 47.344 155.088 48.56 155.088 50.416C155.088 52.336 154.992 54.384 154.8 56.56C154.672 58.736 154.608 60.848 154.608 62.896C154.608 64.88 154.704 66.352 154.896 67.312C155.088 68.208 155.568 68.656 156.336 68.656C157.488 68.656 158.736 68.048 160.08 66.832C161.424 65.552 162.768 63.952 164.112 62.032C165.52 60.048 166.832 57.936 168.048 55.696C169.328 53.392 170.448 51.184 171.408 49.072C171.536 44.72 172.048 41.808 172.944 40.336C173.84 38.864 174.992 38.128 176.4 38.128C178 38.128 179.088 38.64 179.664 39.664C180.24 40.688 180.528 41.584 180.528 42.352C180.528 43.312 180.272 44.176 179.76 44.944C179.248 45.712 178.736 46.768 178.224 48.112C177.712 49.456 177.456 51.504 177.456 54.256C177.456 55.152 177.52 56.144 177.648 57.232C177.84 58.256 178.224 59.152 178.8 59.92C179.44 60.624 180.368 60.976 181.584 60.976C182.864 60.976 184.08 60.464 185.232 59.44C186.448 58.352 187.728 56.496 189.072 53.872L190.128 54.736C188.656 58.256 186.992 60.72 185.136 62.128C183.344 63.536 181.616 64.24 179.952 64.24C177.84 64.24 176.112 63.408 174.768 61.744C173.488 60.016 172.496 57.872 171.792 55.312C170.256 58.192 168.496 61.04 166.512 63.856C164.592 66.672 162.576 69.008 160.464 70.864C158.352 72.784 156.272 73.744 154.224 73.744ZM193.215 72.88C190.399 72.88 188.287 72.048 186.879 70.384C185.471 68.72 184.767 66.704 184.767 64.336C184.767 62.864 185.023 61.008 185.535 58.768C186.047 56.528 186.751 54.192 187.647 51.76C188.607 49.264 189.695 46.928 190.911 44.752C192.127 42.576 193.439 40.816 194.847 39.472C196.255 38.064 197.663 37.36 199.071 37.36C199.839 37.36 200.511 37.616 201.087 38.128C201.663 38.576 201.951 39.248 201.951 40.144C201.951 40.976 201.439 42.224 200.415 43.888C199.455 45.552 198.303 47.472 196.959 49.648C195.679 51.824 194.527 54.096 193.503 56.464C192.543 58.768 192.063 60.976 192.063 63.088C192.063 65.136 192.415 66.512 193.119 67.216C193.887 67.856 194.975 68.176 196.383 68.176C198.559 68.176 200.927 67.088 203.487 64.912C206.047 62.736 208.703 58.928 211.455 53.488L212.895 55.024C210.655 60.656 207.807 65.04 204.351 68.176C200.895 71.312 197.183 72.88 193.215 72.88ZM204.543 29.584C203.327 29.584 202.207 29.296 201.183 28.72C200.223 28.08 199.743 27.12 199.743 25.84C199.743 24.304 200.575 22.992 202.239 21.904C203.903 20.816 205.631 20.272 207.423 20.272C208.575 20.272 209.535 20.528 210.303 21.04C211.135 21.552 211.551 22.48 211.551 23.824C211.551 25.168 210.815 26.48 209.343 27.76C207.871 28.976 206.271 29.584 204.543 29.584ZM255.99 78.352C251.126 78.352 247.126 77.2 243.99 74.896C240.918 72.592 238.646 69.616 237.174 65.968C235.766 62.32 235.062 58.544 235.062 54.64C235.062 49.584 235.83 44.528 237.366 39.472C238.902 34.352 241.014 29.488 243.702 24.88C246.454 20.272 249.558 16.176 253.014 12.592C256.47 9.008 260.15 6.192 264.054 4.144C268.022 2.032 271.958 0.975996 275.862 0.975996C278.678 0.975996 281.046 1.648 282.966 2.992C284.886 4.272 285.846 6.512 285.846 9.712C285.846 11.632 285.494 13.776 284.79 16.144C284.15 18.512 283.254 20.816 282.102 23.056C281.014 25.232 279.766 27.024 278.358 28.432C276.95 29.84 275.51 30.544 274.038 30.544C273.398 30.544 272.726 30.32 272.022 29.872C271.318 29.424 270.678 28.656 270.102 27.568C271.062 26.48 272.15 25.168 273.366 23.632C274.582 22.032 275.734 20.368 276.822 18.64C277.91 16.848 278.806 15.12 279.51 13.456C280.214 11.728 280.566 10.224 280.566 8.944C280.566 7.792 280.246 6.896 279.606 6.256C278.966 5.552 277.846 5.2 276.246 5.2C273.43 5.2 270.518 6.256 267.51 8.368C264.566 10.48 261.718 13.328 258.966 16.912C256.214 20.432 253.718 24.4 251.478 28.816C249.302 33.168 247.574 37.68 246.294 42.352C245.014 46.96 244.374 51.344 244.374 55.504C244.374 58.576 244.822 61.52 245.718 64.336C246.678 67.088 248.182 69.328 250.23 71.056C252.278 72.848 254.966 73.744 258.294 73.744C261.75 73.744 265.174 72.784 268.566 70.864C272.022 68.944 275.158 66.416 277.974 63.28C280.854 60.144 283.158 56.784 284.886 53.2L287.382 54.832C285.142 59.12 282.454 63.056 279.318 66.64C276.182 70.16 272.63 72.976 268.662 75.088C264.758 77.264 260.534 78.352 255.99 78.352ZM299.415 72.496C297.047 72.496 295.127 71.856 293.655 70.576C292.183 69.36 291.447 67.696 291.447 65.584C291.447 63.792 291.895 61.872 292.791 59.824C293.687 57.776 294.583 55.76 295.479 53.776C296.439 51.792 296.919 50.032 296.919 48.496C296.919 47.024 296.439 45.808 295.479 44.848C294.519 43.824 293.399 42.992 292.119 42.352C290.711 45.872 289.111 49.296 287.319 52.624C285.591 55.888 284.183 58.448 283.095 60.304L281.655 57.52C282.551 55.856 283.735 53.488 285.207 50.416C286.679 47.344 288.087 43.92 289.431 40.144C288.791 39.504 288.471 38.64 288.471 37.552C288.471 35.888 288.983 34.32 290.007 32.848C291.031 31.376 292.023 30.64 292.983 30.64C293.751 30.64 294.295 31.088 294.615 31.984C294.999 32.816 295.191 33.392 295.191 33.712C295.191 34.032 295.031 34.608 294.711 35.44C294.455 36.272 294.263 36.88 294.135 37.264C294.199 37.968 294.743 38.672 295.767 39.376C296.855 40.016 298.071 40.784 299.415 41.68C300.759 42.576 301.943 43.696 302.967 45.04C303.991 46.384 304.503 48.08 304.503 50.128C304.503 51.984 304.087 53.872 303.255 55.792C302.423 57.712 301.591 59.504 300.759 61.168C299.927 62.832 299.511 64.272 299.511 65.488C299.511 66.384 299.735 66.992 300.183 67.312C300.695 67.568 301.271 67.696 301.911 67.696C303.447 67.696 305.047 67.248 306.711 66.352C308.375 65.392 310.007 64.176 311.607 62.704C313.207 61.232 314.615 59.696 315.831 58.096C317.047 56.432 317.975 54.928 318.615 53.584L320.919 55.312C319.703 58.064 317.943 60.784 315.639 63.472C313.335 66.096 310.775 68.272 307.959 70C305.143 71.664 302.295 72.496 299.415 72.496ZM326.706 74.224C322.61 74.224 319.442 73.104 317.202 70.864C315.026 68.688 313.938 65.936 313.938 62.608C313.938 59.792 314.642 56.816 316.05 53.68C317.522 50.48 319.474 47.504 321.906 44.752C324.338 41.936 327.026 39.664 329.97 37.936C332.914 36.208 335.858 35.344 338.802 35.344C340.466 35.344 342.034 35.792 343.506 36.688C345.042 37.52 345.81 39.216 345.81 41.776C345.81 44.208 345.106 46.48 343.698 48.592C342.29 50.704 340.402 52.592 338.034 54.256C335.666 55.92 333.042 57.296 330.162 58.384C327.346 59.408 324.498 60.08 321.618 60.4C321.554 60.656 321.49 60.944 321.426 61.264C321.426 61.52 321.426 61.968 321.426 62.608C321.426 62.928 321.458 63.504 321.522 64.336C321.65 65.104 321.938 65.936 322.386 66.832C322.834 67.728 323.57 68.496 324.594 69.136C325.618 69.776 327.026 70.096 328.818 70.096C331.506 70.096 334.194 69.36 336.882 67.888C339.634 66.352 342.194 64.336 344.562 61.84C346.994 59.344 349.01 56.56 350.61 53.488L352.53 55.024C350.802 58.864 348.562 62.224 345.81 65.104C343.122 67.984 340.114 70.224 336.786 71.824C333.522 73.424 330.162 74.224 326.706 74.224ZM322.674 56.848C324.338 56.656 326.194 56.08 328.242 55.12C330.29 54.16 332.242 52.944 334.098 51.472C336.018 50 337.586 48.4 338.802 46.672C340.018 44.88 340.626 43.088 340.626 41.296C340.626 40.592 340.498 40.112 340.242 39.856C339.986 39.6 339.57 39.472 338.994 39.472C337.522 39.472 335.986 40.016 334.386 41.104C332.786 42.128 331.218 43.504 329.682 45.232C328.146 46.896 326.77 48.752 325.554 50.8C324.338 52.848 323.378 54.864 322.674 56.848ZM352.705 74.512C350.593 74.512 348.769 73.808 347.233 72.4C345.633 70.992 344.833 68.88 344.833 66.064C344.833 63.824 345.345 61.392 346.369 58.768C347.393 56.144 348.801 53.552 350.593 50.992C352.385 48.432 354.433 46.128 356.737 44.08C359.041 41.968 361.505 40.272 364.129 38.992C366.753 37.712 369.377 37.072 372.001 37.072C374.753 37.072 377.089 37.776 379.009 39.184C380.929 40.592 381.889 42.448 381.889 44.752C381.889 46.48 381.281 47.728 380.065 48.496C378.849 49.264 377.409 49.488 375.745 49.168C375.873 48.592 375.969 48.016 376.033 47.44C376.161 46.864 376.225 46.256 376.225 45.616C376.225 44.336 375.969 43.184 375.457 42.16C374.945 41.136 373.857 40.624 372.193 40.624C370.401 40.624 368.577 41.232 366.721 42.448C364.865 43.664 363.073 45.264 361.345 47.248C359.681 49.168 358.177 51.312 356.833 53.68C355.489 55.984 354.433 58.256 353.665 60.496C352.897 62.736 352.513 64.752 352.513 66.544C352.513 68.592 353.249 69.616 354.721 69.616C356.193 69.616 357.825 68.912 359.617 67.504C361.409 66.032 363.201 64.208 364.993 62.032C366.849 59.856 368.609 57.648 370.273 55.408C371.937 53.104 373.377 51.152 374.593 49.552C374.785 49.232 375.041 49.072 375.361 49.072C375.617 49.136 376.097 49.296 376.801 49.552C377.569 49.744 378.273 50.064 378.913 50.512C379.553 50.96 379.873 51.536 379.873 52.24C379.873 52.88 379.585 53.712 379.009 54.736C378.497 55.696 377.857 56.784 377.089 58C376.385 59.152 375.745 60.336 375.169 61.552C374.657 62.704 374.401 63.824 374.401 64.912C374.401 65.744 374.625 66.544 375.073 67.312C375.521 68.016 376.257 68.368 377.281 68.368C378.817 68.368 380.961 67.248 383.713 65.008C386.529 62.704 389.377 58.832 392.257 53.392L394.081 55.216C392.545 58.672 390.689 61.744 388.513 64.432C386.401 67.056 384.161 69.104 381.793 70.576C379.425 72.112 377.025 72.88 374.593 72.88C371.969 72.88 370.017 72.048 368.737 70.384C367.457 68.72 366.753 66.928 366.625 65.008C366.625 64.88 366.625 64.784 366.625 64.72C366.625 64.656 366.625 64.592 366.625 64.528C364.065 67.6 361.697 70.032 359.521 71.824C357.409 73.616 355.137 74.512 352.705 74.512ZM397.761 74.416C394.945 74.416 392.673 73.584 390.945 71.92C389.217 70.256 388.353 67.728 388.353 64.336C388.353 61.712 388.833 58.448 389.793 54.544C390.817 50.64 392.097 46.608 393.633 42.448C393.185 42.32 392.641 42.224 392.001 42.16C391.425 42.032 390.849 41.84 390.273 41.584V38.608C391.297 38.736 392.129 38.832 392.769 38.896C393.473 38.96 394.177 39.024 394.881 39.088C396.225 35.696 397.665 32.432 399.201 29.296C400.801 26.096 402.369 23.248 403.905 20.752C405.505 18.256 407.009 16.304 408.417 14.896C409.825 13.424 411.073 12.688 412.161 12.688C412.801 12.688 413.409 12.944 413.985 13.456C414.561 13.904 414.849 14.576 414.849 15.472C414.849 16.752 414.177 18.576 412.833 20.944C411.553 23.312 409.953 26.096 408.033 29.296C406.113 32.432 404.257 35.792 402.465 39.376C402.977 39.376 403.489 39.376 404.001 39.376C404.513 39.376 404.993 39.376 405.441 39.376C408.257 39.376 410.785 39.344 413.025 39.28C415.329 39.152 417.665 38.96 420.033 38.704V41.872C416.513 42.192 413.281 42.448 410.337 42.64C407.393 42.832 404.577 42.96 401.889 43.024C401.697 43.024 401.505 43.024 401.313 43.024C401.121 43.024 400.929 43.024 400.737 43.024C399.393 46.16 398.209 49.392 397.185 52.72C396.225 55.984 395.745 59.184 395.745 62.32C395.745 64.944 396.161 66.8 396.993 67.888C397.825 68.976 399.137 69.52 400.929 69.52C404.129 69.52 407.393 68.08 410.721 65.2C414.113 62.256 417.057 58.288 419.553 53.296L420.897 54.256C419.233 58.032 417.153 61.456 414.657 64.528C412.225 67.6 409.569 70 406.689 71.728C403.809 73.52 400.833 74.416 397.761 74.416ZM423.401 72.88C420.585 72.88 418.473 72.048 417.065 70.384C415.657 68.72 414.953 66.704 414.953 64.336C414.953 62.864 415.209 61.008 415.721 58.768C416.233 56.528 416.937 54.192 417.833 51.76C418.793 49.264 419.881 46.928 421.097 44.752C422.313 42.576 423.625 40.816 425.033 39.472C426.441 38.064 427.849 37.36 429.257 37.36C430.025 37.36 430.697 37.616 431.273 38.128C431.849 38.576 432.137 39.248 432.137 40.144C432.137 40.976 431.625 42.224 430.601 43.888C429.641 45.552 428.489 47.472 427.145 49.648C425.865 51.824 424.713 54.096 423.689 56.464C422.729 58.768 422.249 60.976 422.249 63.088C422.249 65.136 422.601 66.512 423.305 67.216C424.073 67.856 425.161 68.176 426.569 68.176C428.745 68.176 431.113 67.088 433.673 64.912C436.233 62.736 438.889 58.928 441.641 53.488L443.081 55.024C440.841 60.656 437.993 65.04 434.537 68.176C431.081 71.312 427.369 72.88 423.401 72.88ZM434.729 29.584C433.513 29.584 432.393 29.296 431.369 28.72C430.409 28.08 429.929 27.12 429.929 25.84C429.929 24.304 430.761 22.992 432.425 21.904C434.089 20.816 435.817 20.272 437.609 20.272C438.761 20.272 439.721 20.528 440.489 21.04C441.321 21.552 441.737 22.48 441.737 23.824C441.737 25.168 441.001 26.48 439.529 27.76C438.057 28.976 436.457 29.584 434.729 29.584ZM444.535 73.072C441.655 73.072 439.671 72.112 438.583 70.192C437.559 68.336 437.047 66.288 437.047 64.048C437.047 62 437.367 59.92 438.007 57.808C438.647 55.632 439.511 53.616 440.599 51.76C441.751 49.904 442.999 48.432 444.343 47.344C445.751 46.192 447.159 45.616 448.567 45.616C449.015 45.616 449.527 45.712 450.103 45.904C450.743 46.032 451.191 46.256 451.447 46.576C450.679 47.536 449.879 48.72 449.047 50.128C448.279 51.536 447.543 53.04 446.839 54.64C446.199 56.176 445.687 57.744 445.303 59.344C444.919 60.944 444.727 62.416 444.727 63.76C444.727 65.04 444.951 66.096 445.399 66.928C445.911 67.76 446.775 68.176 447.991 68.176C449.207 68.176 450.647 67.504 452.311 66.16C454.039 64.752 455.671 63.152 457.207 61.36C455.159 59.504 453.687 57.488 452.791 55.312C451.895 53.072 451.447 50.384 451.447 47.248C451.447 45.904 451.767 44.368 452.407 42.64C453.111 40.912 454.199 39.408 455.671 38.128C457.207 36.848 459.255 36.208 461.815 36.208C464.567 36.208 466.487 36.976 467.575 38.512C468.727 40.048 469.303 41.872 469.303 43.984C469.303 46.352 468.663 49.008 467.383 51.952C466.167 54.896 464.695 57.68 462.967 60.304C463.735 60.688 464.631 60.88 465.655 60.88C466.615 60.88 467.767 60.656 469.111 60.208C470.455 59.76 471.767 59.024 473.047 58C474.327 56.912 475.351 55.472 476.119 53.68L477.847 54.928C476.439 58.192 474.551 60.592 472.183 62.128C469.879 63.6 467.607 64.336 465.367 64.336C464.535 64.336 463.703 64.272 462.871 64.144C462.039 63.952 461.271 63.728 460.567 63.472C458.391 66.032 455.895 68.272 453.079 70.192C450.263 72.112 447.415 73.072 444.535 73.072ZM459.703 58.288C461.239 56.048 462.551 53.648 463.639 51.088C464.727 48.528 465.271 46.16 465.271 43.984C465.271 42.512 465.047 41.456 464.599 40.816C464.151 40.112 463.479 39.76 462.583 39.76C461.367 39.76 460.119 40.624 458.839 42.352C457.559 44.08 456.919 46.256 456.919 48.88C456.919 50.224 457.143 51.856 457.591 53.776C458.103 55.696 458.807 57.2 459.703 58.288ZM505.309 71.92C502.813 71.92 500.893 71.28 499.549 70C498.269 68.784 497.629 67.216 497.629 65.296C497.629 64.016 497.853 62.672 498.301 61.264C498.749 59.792 499.197 58.32 499.645 56.848C500.093 55.376 500.317 53.968 500.317 52.624C500.317 51.216 499.965 50.256 499.261 49.744C498.621 49.168 497.853 48.88 496.957 48.88C495.037 48.88 493.053 49.68 491.005 51.28C489.021 52.816 487.069 54.768 485.149 57.136C483.293 59.504 481.533 61.968 479.869 64.528C478.205 67.088 476.765 69.392 475.549 71.44C474.333 71.44 473.181 71.216 472.093 70.768C471.005 70.384 470.077 69.68 469.309 68.656C469.373 68.336 469.757 67.376 470.461 65.776C471.101 64.112 471.837 62.16 472.669 59.92C473.501 57.616 474.237 55.216 474.877 52.72C475.517 50.224 475.837 47.952 475.837 45.904C476.285 45.392 476.957 44.88 477.853 44.368C478.813 43.856 479.805 43.6 480.829 43.6C483.069 43.6 484.189 44.56 484.189 46.48C484.189 47.248 484.029 48.4 483.709 49.936C483.453 51.408 483.069 53.104 482.557 55.024C484.221 52.784 486.045 50.672 488.029 48.688C490.013 46.704 492.061 45.104 494.173 43.888C496.349 42.608 498.525 41.968 500.701 41.968C503.453 41.968 505.469 42.896 506.749 44.752C508.093 46.608 508.765 48.656 508.765 50.896C508.765 52.816 508.445 54.608 507.805 56.272C507.165 57.936 506.525 59.504 505.885 60.976C505.309 62.448 505.021 63.888 505.021 65.296C505.021 66.32 505.245 67.056 505.693 67.504C506.205 67.888 506.749 68.08 507.325 68.08C508.861 68.08 510.461 67.344 512.125 65.872C513.789 64.4 515.357 62.544 516.829 60.304C518.365 58 519.709 55.696 520.861 53.392L522.493 54.736C521.149 57.872 519.613 60.752 517.885 63.376C516.221 65.936 514.333 68.016 512.221 69.616C510.173 71.152 507.869 71.92 505.309 71.92ZM528.604 74.896C525.404 74.896 522.812 74.224 520.828 72.88C518.908 71.6 517.532 69.968 516.7 67.984C515.868 65.936 515.452 63.856 515.452 61.744C515.452 59.888 515.708 58.448 516.22 57.424C516.732 56.4 517.372 55.664 518.14 55.216C518.908 54.704 519.612 54.32 520.252 54.064C520.956 53.808 521.468 53.52 521.788 53.2C523.388 51.536 525.02 49.616 526.684 47.44C528.412 45.2 529.884 42.736 531.1 40.048V39.088C531.1 36.528 531.516 34.736 532.348 33.712C533.244 32.624 534.268 32.08 535.42 32.08C536.188 32.08 536.732 32.272 537.052 32.656C537.436 33.04 537.66 33.488 537.724 34C537.724 34.384 537.628 34.832 537.436 35.344C537.308 35.856 537.244 36.56 537.244 37.456C537.244 39.376 537.692 41.584 538.588 44.08C539.548 46.512 540.476 49.104 541.372 51.856C542.332 54.608 542.812 57.424 542.812 60.304C542.812 61.072 542.78 61.776 542.716 62.416C542.652 63.056 542.556 63.664 542.428 64.24C544.412 63.728 546.364 62.64 548.284 60.976C550.204 59.248 552.028 56.72 553.756 53.392L554.908 54.256C553.692 57.904 551.932 60.848 549.628 63.088C547.324 65.264 544.636 66.608 541.564 67.12C540.54 69.744 538.844 71.696 536.476 72.976C534.172 74.256 531.548 74.896 528.604 74.896ZM527.932 70.672C529.212 70.672 530.396 70.352 531.484 69.712C532.572 69.072 533.436 68.144 534.076 66.928C531.452 66.352 529.084 65.328 526.972 63.856C524.86 62.384 523.228 60.88 522.076 59.344C521.18 59.536 520.732 60.4 520.732 61.936C520.732 64.048 521.34 66.032 522.556 67.888C523.772 69.744 525.564 70.672 527.932 70.672ZM534.844 64.048C534.972 63.6 535.036 63.088 535.036 62.512C535.1 61.872 535.132 61.392 535.132 61.072C535.068 58.192 534.684 55.344 533.98 52.528C533.276 49.712 532.572 46.832 531.868 43.888C530.716 45.872 529.372 48.016 527.836 50.32C526.3 52.624 524.86 54.48 523.516 55.888C524.54 57.616 526.044 59.248 528.028 60.784C530.012 62.32 532.284 63.408 534.844 64.048Z" fill="black"/>
</svg>
